<svg width="138" height="141" viewBox="0 0 138 141" fill="none" xmlns="http://www.w3.org/2000/svg">
<g opacity="0.9" clip-path="url(#clip0_154_3154)">
<path d="M138 140.743C138 140.777 137.993 140.81 137.981 140.841C137.968 140.873 137.949 140.901 137.925 140.925C137.901 140.949 137.872 140.968 137.841 140.981C137.81 140.993 137.776 141 137.742 141H0.257532C0.18923 141 0.123725 140.973 0.0754288 140.925C0.0271323 140.876 0 140.811 0 140.743C0 140.675 0.0271323 140.609 0.0754288 140.561C0.123725 140.513 0.18923 140.486 0.257532 140.486H137.742C137.776 140.485 137.81 140.492 137.841 140.505C137.872 140.518 137.901 140.537 137.925 140.561C137.949 140.585 137.968 140.613 137.981 140.644C137.993 140.675 138 140.709 138 140.743Z" fill="#FDFFFB"/>
<path d="M111.906 6.37034C111.737 5.42698 111.317 4.54635 110.69 3.82028C109.799 2.80754 108.717 1.97998 107.505 1.38485C106.294 0.789733 104.977 0.438705 103.63 0.351814C102.283 0.264923 100.931 0.44387 99.6535 0.878439C98.3755 1.31301 97.1958 1.99469 96.1817 2.88455L96.0951 2.96235C94.8846 1.79063 93.409 0.927599 91.7934 0.446413C90.1779 -0.034774 88.4699 -0.119936 86.8144 0.198146C85.1589 0.516228 83.6046 1.22818 82.2832 2.27365C80.9618 3.31913 79.9122 4.66731 79.2236 6.20394C78.5907 7.61011 78.3006 9.14602 78.377 10.6858C78.4533 12.2255 78.894 13.7253 79.6629 15.0621C80.0078 15.6649 80.4131 16.2311 80.8726 16.7521C81.3466 17.2923 94.1409 31.5056 94.2686 31.6483C94.2838 31.666 94.3028 31.6802 94.3241 31.6899C94.3454 31.6996 94.3685 31.7046 94.3919 31.7045C94.3962 31.7045 94.4027 31.7023 94.4092 31.7023C94.4183 31.7022 94.4272 31.7 94.4352 31.6958C94.4775 31.6856 94.514 31.6592 94.5369 31.6223L94.604 31.5121L94.6841 31.376L95.8679 29.4008C99.1508 23.9225 103.576 18.7532 109.024 14.0378C109.374 13.7337 109.699 13.4012 109.995 13.0437C111.161 11.6523 111.864 9.9334 112.008 8.12512C112.049 7.53826 112.015 6.94854 111.906 6.37034Z" fill="#73DB9D"/>
<path d="M53.2071 117.483L55.6166 109.647C52.7175 106.46 49.0833 104.029 45.0295 102.563C48.99 109.116 45.1523 117.663 46.7515 125.148C47.2682 127.478 48.3035 129.663 49.7807 131.539C51.2578 133.416 53.1389 134.937 55.2846 135.989L58.9411 140.513C60.858 137.169 62.0261 133.449 62.3648 129.611C62.7036 125.772 62.2049 121.906 60.9033 118.278C60.1528 116.251 59.1497 114.325 57.9175 112.548C55.7446 115.099 53.2071 117.483 53.2071 117.483Z" fill="#73DB9D"/>
<path d="M39.958 118.484L38.6149 110.397C34.597 108.836 30.2583 108.279 25.9756 108.772C32.4466 112.873 32.829 122.232 37.6032 128.219C39.1065 130.075 41.0088 131.569 43.1691 132.591C45.3294 133.613 47.6922 134.136 50.0826 134.123L55.3759 136.543C55.598 132.696 54.9822 128.847 53.5711 125.261C52.1599 121.674 49.9869 118.436 47.2017 115.769C45.6244 114.288 43.8667 113.011 41.9699 111.969C41.1643 115.22 39.958 118.484 39.958 118.484Z" fill="#73DB9D"/>
<path d="M66.4106 65.4534L65.7454 66.9986L66.8326 72.4868L77.9249 70.9466L77.8363 64.2547L77.6137 62.7888L66.4106 65.4534Z" fill="#D08989"/>
<path d="M60.6797 136.58H63.1269L64.2914 127.155H60.6797V136.58Z" fill="#D08989"/>
<path d="M67.5074 138.91L63.7916 136.346V134.673L63.3597 134.7L60.6796 134.859L59.882 134.905L59.3887 140.814H61.1435L61.4552 139.16L62.2577 140.814H66.9134C67.1364 140.814 67.3536 140.743 67.5331 140.611C67.7127 140.479 67.8453 140.293 67.9116 140.08C67.9779 139.868 67.9745 139.639 67.9018 139.429C67.829 139.218 67.6908 139.037 67.5074 138.91Z" fill="#2F2E41"/>
<path d="M74.4259 136.58H76.8731L78.3127 122.703L73.7144 122.429L74.4259 136.58Z" fill="#D08989"/>
<path d="M81.2537 138.91L77.5379 136.346V134.673L77.0667 134.7L74.34 134.864L73.6283 134.905L73.135 140.814H74.8898L75.2015 139.16L76.004 140.814H80.6597C80.8827 140.814 81.0999 140.743 81.2794 140.611C81.459 140.479 81.5916 140.293 81.6579 140.08C81.7242 139.868 81.7208 139.639 81.6481 139.429C81.5754 139.218 81.4372 139.037 81.2537 138.91Z" fill="#2F2E41"/>
<path d="M59.6411 128.452H59.6506L60.1213 113.126C59.8167 112.539 59.6621 111.886 59.6713 111.226C59.6805 110.565 59.8532 109.917 60.1739 109.339L60.2413 109.217L60.0666 108.408C59.8422 107.369 59.9452 106.286 60.3614 105.308L60.8004 91.0118C59.2319 80.8604 66.7073 74.2401 66.7073 74.2401L66.0202 68.9194L78.1113 69.1938L77.9056 74.2401L80.3098 82.4884C81.575 94.7978 81.6503 106.857 80.356 118.628C80.3533 118.662 80.3584 118.696 80.3707 118.728C80.5021 119.126 80.5483 119.548 80.5064 119.966C80.4646 120.383 80.3356 120.788 80.1277 121.153C80.0738 121.246 80.0367 121.348 80.0182 121.453C79.7515 123.517 79.7168 120.907 79.3635 122.952L79.4322 122.987C79.6798 123.072 79.786 123.415 79.6694 123.752C79.5529 124.089 79.2577 124.293 79.0102 124.208L72.5466 124.277C72.299 124.191 72.1928 123.849 72.3093 123.512C72.4259 123.175 72.721 122.971 72.9686 123.056L73.3707 123.259L72.698 121.061L72.4622 120.841C72.3492 120.736 72.2615 120.606 72.2057 120.462C72.1499 120.318 72.1274 120.164 72.14 120.01C72.1525 119.856 72.1997 119.707 72.2781 119.574C72.3565 119.441 72.4639 119.327 72.5925 119.242L72.788 112.86L72.8831 110.159L72.6871 107.095L71.7805 93.3102L68.3493 110.261L64.8444 128.622C64.9262 128.696 64.9876 128.789 65.0228 128.894C65.058 128.998 65.0658 129.109 65.0455 129.217C65.0132 129.368 64.9294 129.503 64.8083 129.599C64.6873 129.695 64.5366 129.746 64.382 129.743H59.624C59.5242 129.743 59.4259 129.72 59.3365 129.676C59.2471 129.632 59.1692 129.567 59.1088 129.488C59.0484 129.409 59.0072 129.317 58.9883 129.219C58.9694 129.121 58.9734 129.02 58.9999 128.924C59.04 128.786 59.1246 128.665 59.2405 128.58C59.3563 128.494 59.4971 128.449 59.6411 128.452Z" fill="#2F2E41"/>
<path d="M63.8721 39.3749C63.8717 40.3534 64.1119 41.317 64.5715 42.1812C65.0312 43.0453 65.6963 43.7836 66.5083 44.3312C67.3204 44.8788 68.2547 45.219 69.2292 45.3218C70.2036 45.4247 71.1885 45.2871 72.0973 44.9211C73.006 44.5552 73.811 43.972 74.4414 43.2229C75.0718 42.4738 75.5084 41.5816 75.7129 40.6247C75.9174 39.6677 75.8835 38.6753 75.6143 37.7344C75.345 36.7936 74.8486 35.9331 74.1685 35.2286L74.1398 35.2C74.0919 35.1497 74.044 35.0995 73.9937 35.0517L73.9928 35.0515L73.992 35.051L73.9915 35.0502L73.9914 35.0493C73.9227 34.9992 73.8593 34.9424 73.8022 34.8795C72.9941 33.7519 72.0778 32.8063 69.8584 33.397C66.6631 34.2475 63.8721 36.0727 63.8721 39.3749Z" fill="#2F2E41"/>
<path d="M96.7563 36.8159C96.7699 37.1358 96.713 37.4547 96.5898 37.7502C96.4666 38.0457 96.28 38.3107 96.0432 38.5264C95.8063 38.7421 95.525 38.9034 95.219 38.9988C94.913 39.0942 94.5898 39.1214 94.2721 39.0786L78.8337 51.7309L76.4756 47.592L92.3925 36.4567C92.4999 35.9285 92.7976 35.458 93.2292 35.1344C93.6608 34.8108 94.1963 34.6565 94.7342 34.7008C95.2721 34.7451 95.775 34.9849 96.1477 35.3747C96.5204 35.7645 96.7369 36.2773 96.7563 36.8159Z" fill="#D08989"/>
<path d="M66.8357 66.9826C66.594 66.7727 66.4014 66.5122 66.2714 66.2196C66.1414 65.927 66.0772 65.6094 66.0833 65.2891C66.0894 64.9687 66.1656 64.6536 66.3066 64.3657C66.4476 64.0779 66.6499 63.8244 66.8994 63.623L68.3188 43.713L72.946 44.8445L70.0957 64.0596C70.4056 64.5006 70.5427 65.0402 70.4812 65.5762C70.4196 66.1121 70.1637 66.6071 69.7619 66.9674C69.36 67.3277 68.8402 67.5282 68.3009 67.531C67.7616 67.5338 67.2403 67.3387 66.8357 66.9826Z" fill="#A56D6D"/>
<path d="M72.3148 55.4622C72.3148 55.4622 72.8177 56.5043 74.7738 55.0241C76.3398 53.839 83.8157 48.7263 85.4763 46.5651C85.8248 46.7224 86.2157 46.7594 86.5875 46.6703C86.9593 46.5812 87.2909 46.3712 87.53 46.0732L83.4455 42.1462C82.1638 42.2327 82.1507 43.0891 82.2605 43.5809L78.9779 44.8834L70.4282 49.7884L71.9379 54.7154L72.3148 55.4622Z" fill="#5CAF7E"/>
<path d="M71.3333 45.7707C74.1056 45.7707 76.3531 43.5265 76.3531 40.758C76.3531 37.9896 74.1056 35.7454 71.3333 35.7454C68.5609 35.7454 66.3135 37.9896 66.3135 40.758C66.3135 43.5265 68.5609 45.7707 71.3333 45.7707Z" fill="#D08989"/>
<path d="M78.1811 65.6219L78.2326 62.8256C78.4363 62.5462 80.1445 60.1076 79.7616 57.6716C79.5825 56.5246 78.9591 55.5615 77.9135 54.8115L77.2386 53.243L76.2397 50.9246L73.3167 49.187L72.9118 48.3635L72.578 47.6798L68.5457 47.2778L67.5517 48.6135L67.5321 48.616C66.6187 48.8232 65.7607 49.2244 65.0164 49.7923C64.1993 50.4114 63.537 51.2111 63.0814 52.1287C62.6257 53.0463 62.3892 54.0569 62.3904 55.0811L62.4149 58.3308L62.4198 58.7965L62.4223 59.2474L64.9379 66.0091L65.0336 66.2713L66.0202 68.9206L65.8509 69.2C65.6686 69.504 65.6012 69.8632 65.6611 70.2125C65.721 70.5618 65.9041 70.8781 66.1773 71.1043L66.2951 72.761L66.5086 72.7022L67.7235 72.364L76.9122 69.8029C77.2582 69.7064 77.5638 69.501 77.7835 69.2172C77.7914 69.207 77.7988 69.1963 77.8055 69.1853C77.8419 69.1402 77.874 69.0918 77.9013 69.0407C78.1099 68.5138 78.132 68.3717 78.1344 68.2246C78.4395 67.8776 78.6157 67.4363 78.6336 66.9749C78.6514 66.5135 78.5099 66.06 78.2326 65.6905L78.1811 65.6219Z" fill="#5CAF7E"/>
<path d="M66.0798 42.0722C66.1253 42.065 66.1708 42.0555 66.2163 42.0483C66.9993 41.9096 67.7823 41.7733 68.5629 41.6322L68.6348 39.8652L69.5806 41.4481C71.7381 42.163 73.7567 41.759 75.6556 40.8671C76.2819 40.5702 76.8896 40.2356 77.4754 39.8652C77.6683 36.8767 76.4583 34.9636 74.2069 35.1642C74.1246 35.1715 74.0656 35.0877 73.9937 35.0518L73.9928 35.0516L73.9921 35.0511L73.9915 35.0503L73.9914 35.0494C73.8692 34.992 73.7447 34.937 73.6202 34.8868C72.6454 34.5064 71.5825 34.4101 70.555 34.609C69.5275 34.808 68.5777 35.294 67.8159 36.0107C66.2834 37.4717 65.5937 39.8843 66.0798 42.0722Z" fill="#2F2E41"/>
<path d="M69.3507 33.5413C69.3005 33.714 69.2012 33.8684 69.0649 33.9859C68.9285 34.1034 68.7609 34.1788 68.5825 34.203C67.9076 35.0363 67.1345 35.9185 66.0767 36.0852C65.7744 36.1492 65.4589 36.0948 65.1956 35.9332C65.1635 35.9131 65.1339 35.8892 65.1073 35.8622C64.8569 35.6244 64.8373 35.1465 65.1343 34.9676C63.8041 35.4946 63.0261 36.9283 62.8297 38.3424C62.6334 39.7564 62.9058 41.1852 63.085 42.6018C63.2641 44.0183 63.3427 45.506 62.7856 46.822C62.1278 48.3734 60.616 49.4885 58.9667 49.8438C58.8195 49.8757 58.6722 49.9027 58.5225 49.9198C58.423 49.2471 58.173 48.6055 57.7911 48.0425C57.8921 48.694 57.8323 49.3603 57.6169 49.9835C56.3767 49.9664 55.1588 49.652 54.0656 49.067C52.5709 48.2803 51.3266 47.0794 50.3081 45.7339C52.0629 46.9764 54.4877 47.4421 56.3971 46.4593C58.1053 45.577 59.114 43.7242 59.5557 41.8568C59.9975 39.9868 58.1407 37.6958 58.342 35.7866C58.5457 33.8775 60.8516 32.2571 62.1131 30.8087C62.9181 29.8847 64.1059 29.2009 65.3306 29.3161C65.7442 29.3555 66.1444 29.4834 66.5041 29.6911C66.8637 29.8989 67.1743 30.1816 67.4146 30.52C67.655 30.8584 67.8195 31.2445 67.8969 31.6521C67.9744 32.0597 67.9629 32.4792 67.8634 32.882C68.2119 32.3894 69.1126 32.4972 69.336 33.0585C69.3959 33.213 69.4011 33.3834 69.3507 33.5413Z" fill="#2F2E41"/>
<path d="M66.2163 42.0482C66.2163 42.0482 67.7033 36.5055 74.0775 35.2263C74.0847 35.2239 74.1087 35.2143 74.1398 35.2C74.159 35.188 74.1829 35.1761 74.2068 35.1641C74.135 35.1235 74.0656 35.0876 73.9937 35.0517L73.9928 35.0515L73.992 35.051L73.9915 35.0502L73.9914 35.0493C73.9291 34.9919 73.8668 34.9346 73.8022 34.8796L73.6202 34.8867C73.6202 34.8867 67.2244 33.8753 66.2163 42.0482Z" fill="#5CAF7E"/>
<path d="M82.2137 68.4612C82.1567 68.317 82.0611 68.1912 81.9373 68.0975C81.8135 68.0039 81.6663 67.9461 81.5119 67.9304C81.2022 67.9036 80.8905 67.9486 80.6011 68.062C79.4658 68.4397 78.4464 69.1015 77.64 69.9844L77.6538 70.5455C77.2751 71.0278 77.073 71.6249 77.081 72.2377C77.0891 72.8504 77.3067 73.4421 77.6978 73.9143C77.9187 74.1861 78.2202 74.3809 78.5589 74.4709C78.7282 74.5131 78.9057 74.5088 79.0728 74.4585C79.2398 74.4082 79.3902 74.3138 79.5079 74.1852C79.8472 73.7726 79.6833 73.1509 79.4338 72.6786C78.9984 71.8571 78.3612 71.1594 77.582 70.6511C78.8831 70.6179 80.1613 70.3007 81.3265 69.7216C81.5847 69.6089 81.8176 69.4456 82.0117 69.2415C82.1075 69.1384 82.1762 69.0131 82.2115 68.8769C82.2468 68.7407 82.2476 68.5978 82.2137 68.4612Z" fill="#2F2E41"/>
<path d="M105.545 101.473L103.116 101.569C102.509 102.69 102.184 103.943 102.172 105.217C103.617 103.47 106.385 103.703 108.323 102.522C108.924 102.15 109.434 101.647 109.815 101.05C110.195 100.454 110.436 99.7802 110.52 99.0783L111.428 97.6143C110.304 97.4074 109.148 97.4461 108.041 97.728C106.934 98.0098 105.901 98.5281 105.013 99.247C104.519 99.6552 104.079 100.124 103.702 100.642C104.629 100.998 105.545 101.473 105.545 101.473Z" fill="#73DB9D"/>
<path d="M93.4259 127.838L90.9968 127.934C90.3894 129.055 90.0653 130.308 90.0527 131.582C91.4979 129.835 94.2661 130.068 96.2038 128.887C96.8053 128.515 97.3152 128.012 97.6955 127.415C98.0758 126.819 98.317 126.145 98.401 125.443L99.3085 123.979C98.1846 123.772 97.0292 123.811 95.9219 124.093C94.8145 124.375 93.7814 124.893 92.8939 125.612C92.4 126.02 91.9596 126.489 91.583 127.007C92.5099 127.363 93.4259 127.838 93.4259 127.838Z" fill="#73DB9D"/>
<path d="M36.1765 90.5083L34.1176 89.2176C32.9821 89.8005 32.0063 90.6514 31.2749 91.6964C33.4559 91.0692 35.6087 92.8225 37.8753 92.9413C38.5825 92.973 39.2877 92.8453 39.9388 92.5678C40.5899 92.2903 41.1701 91.87 41.6364 91.3381L43.2133 90.6418C42.4029 89.8372 41.4274 89.2176 40.3542 88.8256C39.2809 88.4337 38.1353 88.2788 36.9963 88.3716C36.3578 88.43 35.7292 88.5684 35.1254 88.7836C35.6889 89.6003 36.1765 90.5083 36.1765 90.5083Z" fill="#73DB9D"/>
<path d="M96.8446 34.2116C96.7962 33.8868 97.1491 33.6553 97.2811 33.3545C97.3659 33.086 97.3658 32.798 97.281 32.5296C97.2048 32.165 97.117 31.7782 96.8526 31.5154C96.5824 31.2887 96.2496 31.1493 95.8983 31.1159C95.0443 30.967 94.1724 30.9516 93.3137 31.0703L93.965 31.1098C93.5549 31.0837 93.1433 31.1314 92.75 31.2506C92.5539 31.3124 92.3765 31.4225 92.2341 31.5706C92.0916 31.7187 91.9887 31.9002 91.9348 32.0984C91.8543 32.4999 92.1292 32.9701 92.5378 33.0045C92.3337 32.963 92.1215 33.0038 91.9476 33.1181C91.7736 33.2323 91.6519 33.4107 91.6092 33.6142C91.5665 33.8178 91.6062 34.0299 91.7197 34.2043C91.8331 34.3786 92.011 34.5011 92.2146 34.5449C92.1206 34.7986 91.8409 34.9201 91.6015 35.0467C91.3621 35.1732 91.1101 35.3903 91.1505 35.6578C91.204 36.0115 91.6773 36.0842 92.0352 36.0686L95.9312 35.8988C96.2667 35.9108 96.6001 35.8417 96.9031 35.6973C97.1919 35.5291 97.3933 35.1605 97.2599 34.8544C97.1568 34.6179 96.8827 34.4667 96.8446 34.2116Z" fill="#3F3D56"/>
<path d="M51.6594 68.8622C51.124 71.2112 50.8695 73.8743 52.2977 75.9764C52.9047 76.8782 53.7955 77.5521 54.8292 77.8914C55.8755 78.2012 56.9788 78.2689 58.0552 78.0893C60.491 77.7523 62.6558 76.4853 65.0514 75.9934C66.1086 75.7764 67.2305 75.7046 68.2482 76.1224C69.0107 76.4354 69.8139 77.0648 69.8175 77.9625C69.8213 78.8843 69.0195 79.4962 68.2221 79.7796C67.158 80.1578 66.0523 80.0115 64.9486 79.9638C63.76 79.9124 62.5479 80.0198 61.5605 80.7467C60.7112 81.4086 60.0599 82.2904 59.6774 83.2962C59.181 84.499 58.9796 85.7923 58.6622 87.0473C58.3786 88.1756 57.9773 89.2712 57.465 90.316C56.4597 92.3639 55.0506 94.1879 53.322 95.6786C52.4695 96.4112 51.4337 97.1576 50.2694 97.2248C49.3713 97.2766 48.2797 96.8997 47.9336 95.9915C47.805 95.5993 47.8176 95.1746 47.9692 94.7907C48.1208 94.4069 48.4019 94.0879 48.7639 93.8889C49.5335 93.5011 50.3716 94.0543 50.6202 94.8136C50.6854 94.9887 50.7082 95.1766 50.6867 95.3621C50.6652 95.5476 50.6001 95.7254 50.4967 95.881C50.2633 96.2285 50.8255 96.5534 51.0573 96.2082C51.5955 95.4068 51.3142 94.3291 50.655 93.6872C50.3335 93.3598 49.9036 93.1605 49.4457 93.1264C48.9878 93.0923 48.5331 93.2258 48.1665 93.5019C47.7856 93.7915 47.4977 94.1859 47.338 94.6365C47.1784 95.0872 47.1539 95.5746 47.2677 96.0389C47.5446 97.0366 48.5263 97.6712 49.5067 97.8284C50.7173 98.0226 51.8824 97.5474 52.8596 96.861C53.8401 96.1543 54.7317 95.332 55.5148 94.4119C57.1071 92.5833 58.3041 90.4462 59.0308 88.1342C59.7454 85.8476 59.7974 82.8268 61.9207 81.2825C63.0134 80.4879 64.3522 80.576 65.6333 80.6489C66.7641 80.7133 67.8673 80.7016 68.9048 80.1904C69.7614 79.7683 70.4526 78.9891 70.4669 77.9964C70.4813 76.9943 69.7688 76.1885 68.9293 75.7319C66.7115 74.5258 64.0483 75.4985 61.8695 76.3043C59.6784 77.1147 57.1768 78.0657 54.8483 77.213C53.7736 76.796 52.9084 75.9704 52.4423 74.9173C51.8785 73.7233 51.7983 72.3684 51.9285 71.0726C52.0053 70.3865 52.1245 69.7059 52.2855 69.0345C52.3781 68.6283 51.7523 68.4549 51.6594 68.8622Z" fill="#3F3D56"/>
<path d="M62.412 81.9342C62.2127 81.6835 62.0707 81.3923 61.9963 81.0809C61.9218 80.7695 61.9166 80.4457 61.981 80.1321C62.0455 79.8185 62.178 79.5228 62.3692 79.2659C62.5605 79.009 62.8058 78.7971 63.0879 78.6451L59.7878 68.8891L62.4825 58.5503L66.8278 60.5119L64.1464 68.3102L66.1525 79.6612C66.3768 80.1514 66.4132 80.7067 66.2548 81.222C66.0965 81.7372 65.7544 82.1765 65.2933 82.4567C64.8322 82.7369 64.2843 82.8384 63.7532 82.7421C63.2222 82.6458 62.745 82.3584 62.412 81.9342Z" fill="#D08989"/>
<path d="M66.3894 50.0317C66.3894 50.0317 65.3688 49.4845 64.659 51.8305C64.0908 53.7088 60.2238 63.9066 60.1541 66.6299C59.7797 66.7074 59.4418 66.9071 59.1936 67.1976C58.9454 67.488 58.801 67.8527 58.7832 68.2341L64.3996 69.0102C65.3851 68.1873 64.8912 67.4871 64.5127 67.1539L66.4256 63.9183L70.4238 55.1833L67.1341 50.4142L66.3894 50.0317Z" fill="#5CAF7E"/>
<path d="M55.6388 62.2726C54.9968 64.4131 54.029 66.4423 52.7692 68.289C52.4576 68.7428 52.1301 69.1851 51.7867 69.6159C51.5198 69.1315 51.1965 68.6804 50.8236 68.2717C49.5144 66.8346 47.7592 65.8945 46.0561 64.9523C44.3529 64.0101 42.6238 62.9987 41.4205 61.4709C40.8806 60.7831 40.4939 59.9881 40.2865 59.1391C40.0138 57.9872 40.1177 56.7857 40.7908 55.824C41.7689 54.4258 43.7188 53.9331 45.3765 54.3372C47.0364 54.7413 48.4258 55.8932 49.5035 57.2157C49.1508 55.5906 50.8669 54.0217 52.5268 54.1643C54.1867 54.3091 55.5176 55.757 55.9591 57.3605C56.4028 58.9619 56.1149 60.6777 55.6388 62.2726Z" fill="#73DB9D"/>
<path d="M87.7255 2.81676C86.846 2.96017 86.0048 3.28052 85.253 3.75839C84.5013 4.23626 83.8546 4.86168 83.3522 5.59669C82.843 6.35557 82.5037 7.21522 82.3576 8.11697C82.2114 9.01873 82.2618 9.94135 82.5053 10.8219C82.7787 11.8429 83.2982 12.7816 84.0184 13.5561C84.3037 13.8622 84.762 13.403 84.4775 13.0977C83.9103 12.4763 83.4816 11.7417 83.2197 10.9426C82.9578 10.1435 82.8687 9.29804 82.9582 8.46199C83.0545 7.65849 83.321 6.88468 83.74 6.19198C84.1589 5.49928 84.7208 4.90358 85.3881 4.44447C86.1359 3.92104 86.9951 3.57787 87.8981 3.44192C88.3099 3.38002 88.1349 2.75521 87.7255 2.81676Z" fill="#3F3D56"/>
<g opacity="0.2">
<path d="M109.995 13.0436C109.699 13.401 109.374 13.7335 109.024 14.0376C103.576 18.7531 99.1508 23.9223 95.8678 29.4006L94.684 31.3758L94.6039 31.512C94.325 31.3022 94.0817 31.049 93.8833 30.7621C93.1258 29.6621 93.1215 28.2164 93.3076 26.8938C93.8705 22.9282 95.8908 19.3137 98.9754 16.7536C102.06 14.1935 105.988 12.871 109.995 13.0436Z" fill="black"/>
</g>
<g opacity="0.2">
<path d="M52.7693 68.2891C52.4577 68.7429 52.1302 69.1852 51.7868 69.616C51.5199 69.1316 51.1966 68.6804 50.8238 68.2718C49.5145 66.8347 47.7594 65.8946 46.0562 64.9524C44.353 64.0102 42.6239 62.9988 41.4206 61.4709C40.8807 60.7832 40.4941 59.9882 40.2866 59.1392C44.1154 59.6692 47.6335 61.5329 50.22 64.4013C51.2555 65.5658 52.1144 66.8757 52.7693 68.2891Z" fill="black"/>
</g>
<path d="M94.2665 31.4644C94.7446 31.4644 95.1322 31.0774 95.1322 30.6C95.1322 30.1226 94.7446 29.7356 94.2665 29.7356C93.7884 29.7356 93.4009 30.1226 93.4009 30.6C93.4009 31.0774 93.7884 31.4644 94.2665 31.4644Z" fill="#3F3D56"/>
</g>
<defs>
<clipPath id="clip0_154_3154">
<rect width="138" height="141" fill="white"/>
</clipPath>
</defs>
</svg>
