<svg width="30" height="28" viewBox="0 0 30 28" fill="none" xmlns="http://www.w3.org/2000/svg">
<path d="M29.8943 5.61928C29.7431 4.7859 29.3687 4.00793 28.8103 3.36651C28.0161 2.47183 27.0516 1.74074 25.972 1.215C24.8923 0.689256 23.7186 0.37915 22.5179 0.302388C21.3171 0.225627 20.1128 0.383713 18.9738 0.76762C17.8348 1.15153 16.7833 1.75374 15.8795 2.53986L15.8023 2.60859C14.7234 1.57347 13.4083 0.81105 11.9684 0.385959C10.5285 -0.0391316 9.00625 -0.114366 7.53073 0.166635C6.05521 0.447636 4.66987 1.07659 3.49215 2.00018C2.31442 2.92378 1.37902 4.11479 0.765213 5.47229C0.201188 6.71452 -0.0574005 8.07138 0.0106599 9.43163C0.0787202 10.7919 0.471486 12.1168 1.15676 13.2978C1.46416 13.8303 1.82542 14.3305 2.23498 14.7907C2.65739 15.268 14.0606 27.8244 14.1744 27.9504C14.188 27.966 14.2049 27.9786 14.2238 27.9871C14.2428 27.9957 14.2635 28.0001 14.2843 28C14.2882 28 14.294 27.9981 14.2998 27.9981C14.3078 27.998 14.3157 27.996 14.3229 27.9924C14.3606 27.9833 14.3931 27.96 14.4136 27.9275L14.4734 27.8301L14.5447 27.7098L15.5998 25.9649C18.5258 21.1252 22.4703 16.5586 27.3251 12.3929C27.6377 12.1242 27.9274 11.8305 28.1912 11.5147C29.2299 10.2855 29.8568 8.76697 29.985 7.1695C30.0216 6.65105 29.9912 6.13008 29.8943 5.61928Z" fill="#73DB9D"/>
</svg>
